<svg xmlns="http://www.w3.org/2000/svg" xmlns:xlink="http://www.w3.org/1999/xlink" version="1.1" x="0px" y="0px" viewBox="0 0 53 66.25" style="enable-background:new 0 0 53 53;" xml:space="preserve"><g><path d="M24.009491,8.9733095c0.2392578-0.1376953,0.3212891-0.4433594,0.1831055-0.6826172   c-0.1386719-0.2392578-0.4448242-0.3222661-0.6831055-0.1826172l-10.4177256,6.0194092   c-0.0046997,0.0025024-0.0103149,0.0013428-0.0148926,0.0040283c-1.0759277,0.6207886-1.9162598,2.0749502-1.9163818,3.3134756   c-0.000061,0.0028076-0.0020752,0.0050049-0.0020752,0.0078125l0.0566406,20.5419922   c0.0092773,3.6884766,1.2890625,6.4589844,3.6035156,7.8007813c0.1199284,0.0696716,6.5529547,3.8072395,6.6635752,3.8710938   c2.7052135,1.5547829,5.9626007,0.7417183,8.6557617-0.8144531c6.4741211-3.7373047,11.7246094-12.8320313,11.7036133-20.2724609   L41.7834167,8.0406923C41.7814636,7.3434262,41.51828,6.80827,41.0426941,6.5348325   c-0.6928558-0.398356-6.7374344-3.9104795-6.6367188-3.8544919c-0.4667969-0.2773438-1.0825195-0.2382813-1.6918945,0.1103516   l-3.1425781,1.8154294c-0.2392578,0.1376953-0.3212891,0.4433594-0.1831055,0.6826172   c0.1376953,0.2392578,0.4433594,0.3212891,0.6831055,0.1826172l3.140625-1.8134763   c0.2807617-0.1621094,0.5366211-0.2070313,0.6875-0.1152344l5.4026489,3.1409299l-11.0941772,6.405396l-8.2381592,4.7554312   c-0.1012383-0.0588055-6.0027008-3.486783-5.6412973-3.2768545L24.009491,8.9733095z M13.3420095,15.1562929   c0.1012678,0.0587549,6.1151609,3.5479956,5.7338877,3.3267813c-0.0182495,0.0177612-0.0335083,0.0397949-0.0515137,0.0580444   c-0.488493,0.4942608-0.9349937,1.2460098-1.1174316,1.9624634c-0.1569023-0.0911579-6.0534048-3.5169411-5.7285166-3.328186   C12.2773733,16.4405937,12.7543631,15.6139956,13.3420095,15.1562929z M15.3205252,44.9303398   c-1.9941406-1.15625-3.097168-3.6201172-3.1054688-6.9375l-0.0541992-19.6708984l5.6409922,3.2808838   c0.0770607,27.725605,0.0505142,18.1743164,0.0562744,20.24646c0.0043507,1.6718025,0.35709,3.7384911,1.1616211,5.2275391   L15.3205252,44.9303398z M29.6379089,47.9869804c-2.9189453,1.6845703-5.6376953,1.9746094-7.6572266,0.8125   c-0.0009155-0.0005493-0.0016479-0.0012207-0.0025635-0.00177c-0.0056152-0.0036011-0.008728-0.0095215-0.0145264-0.0128784   l-0.0063477-0.0029297c-2.3287601-1.3570786-3.0901222-4.2341919-3.0976563-6.9326172   c-0.0035744-1.2630768-0.0569077-20.111805-0.0581055-20.5351563c0-0.0006104-0.0004883-0.0011597-0.0004883-0.00177v-0.0021362   c-0.0024414-0.8857422,0.6464844-2.0087891,1.4169922-2.4541016C49.7824745,1.7910081,35.6080933,9.9726963,39.86203,7.5172544   c0.5007172-0.2962489,0.9191284-0.2038574,0.9213867,0.5253911l0.0581055,20.5390625   C40.8615417,35.7037773,35.8356628,44.4088554,29.6379089,47.9869804z"/><path d="M25.95578,7.8492856l2.2553711-1.3027344c0.2392578-0.1376953,0.3212891-0.4433594,0.1831055-0.6826172   c-0.1386719-0.2392578-0.4458008-0.3222656-0.6831055-0.1826172L25.45578,6.9840512   c-0.2392578,0.1376953-0.3212891,0.4433594-0.1831055,0.6826172C25.4118958,7.9070091,25.7193184,7.9873443,25.95578,7.8492856z"/><path d="M36.3424988,11.8102236c-0.3369141-0.1923828-0.7646484-0.1699219-1.1748047,0.0683594l-11.1728516,6.4501944   c-0.6850586,0.3964844-1.2001953,1.2890625-1.1977539,2.0742188l-0.0268555,19.6357422   c0.0133152,4.5870476,3.4055462,6.4336853,7.3198242,4.171875c2.7995605-1.6170044,5.2018433-4.9710693,6.2220459-8.3565063   c0.3459473-1.1393433,0.5368652-2.2825928,0.5338135-3.3651733l0.0263672-19.6347656   C36.8713074,12.3834658,36.677948,12.003583,36.3424988,11.8102236z M35.6676941,12.7438173   c0.1054688-0.0605469,0.1708984-0.0654297,0.1679688-0.0732422c0.0092773,0.0107422,0.0361328,0.0683594,0.0366211,0.1835938   l-0.0216675,16.1428223c-1.4842262-2.0668106-4.0361977-1.9377766-6.3030396-0.6281738   c-2.4512329,1.4143677-4.5914307,4.1655273-5.7711182,7.1020508l0.0206299-15.0688477   c-0.0014648-0.4267578,0.3251953-0.9921875,0.6982422-1.2080078L35.6676941,12.7438173z M29.5793152,43.3424492   c-3.2964153,1.9029884-5.7619476,0.4224358-5.7719727-3.2949219c-0.0112305-3.9697266,2.7880859-8.8203125,6.2402344-10.8134766   c3.2489281-1.8750877,5.7773972-0.4771786,5.7875977,3.2939453c0.0028076,0.9907227-0.1697998,2.0365601-0.4840088,3.0792847   C34.3987732,38.7427788,32.1729431,41.8447075,29.5793152,43.3424492z"/><path d="M27.0002136,21.4313164l6.1425781-3.546875c0.2392578-0.1376953,0.3212891-0.4433594,0.1831055-0.6826172   c-0.1386719-0.2382813-0.4448242-0.3222656-0.6831055-0.1826172l-6.1425781,3.546875   c-0.2392578,0.1376953-0.3212891,0.4433594-0.1831055,0.6826172C26.4563293,21.4890404,26.763752,21.569376,27.0002136,21.4313164z   "/><path d="M27.0002136,24.7858086l6.1425781-3.546875c0.2392578-0.1376953,0.3212891-0.4433594,0.1831055-0.6826172   c-0.1386719-0.2392578-0.4448242-0.3222656-0.6831055-0.1826172l-6.1425781,3.546875   c-0.2392578,0.1376953-0.3212891,0.4433594-0.1831055,0.6826172C26.4563293,24.8435326,26.763752,24.9238682,27.0002136,24.7858086   z"/><path d="M27.0002136,28.1403008l6.1425781-3.5458984c0.2392578-0.1376953,0.3212891-0.4433594,0.1831055-0.6826172   c-0.1386719-0.2402344-0.4448242-0.3222656-0.6831055-0.1826172l-6.1425781,3.5458984   c-0.2392578,0.1376953-0.3212891,0.4433594-0.1831055,0.6826172C26.4563293,28.1980247,26.763752,28.2783604,27.0002136,28.1403008   z"/><path d="M27.7663269,34.2809258l4.6098633-2.6611328c0.2392578-0.1376953,0.3212891-0.4433594,0.1831055-0.6826172   c-0.1386719-0.2392578-0.4458008-0.3222656-0.6831055-0.1826172l-4.6098633,2.6611328   c-0.2392578,0.1376953-0.3212891,0.4433594-0.1831055,0.6826172   C27.2224426,34.3386497,27.5298653,34.4189835,27.7663269,34.2809258z"/><path d="M33.7116394,32.3561211l-8.2807617,4.78125c-0.2392578,0.1376953-0.3212891,0.4433594-0.1831055,0.6826172   c0.1392212,0.2403412,0.4466438,0.3206749,0.6831055,0.1826172l8.2807617-4.78125   c0.2392578-0.1376953,0.3212891-0.4433594,0.1831055-0.6826172C34.2555847,32.2994804,33.9494324,32.2164726,33.7116394,32.3561211   z"/><path d="M33.0080261,35.4244804l-6.8735352,3.9677734c-0.2392578,0.1376953-0.3212891,0.4433594-0.1831055,0.6826172   c0.1392212,0.2403412,0.4466438,0.3206749,0.6831055,0.1826172l6.8735352-3.9677734   c0.2392578-0.1376953,0.3212891-0.4433594,0.1831055-0.6826172C33.5519714,35.3678398,33.2458191,35.284832,33.0080261,35.4244804z   "/><path d="M31.1149597,39.1783867l-3.0869141,1.7822266c-0.2392578,0.1376953-0.3212891,0.4433594-0.1831055,0.6826172   c0.1392212,0.2403412,0.4466438,0.3206749,0.6831055,0.1826172l3.0869141-1.7822266   c0.2392578-0.1376953,0.3212891-0.4433594,0.1831055-0.6826172C31.6593933,39.1217461,31.353241,39.0377617,31.1149597,39.1783867z   "/></g><text x="0" y="68" fill="#000000" font-size="5px" font-weight="bold" font-family="'Helvetica Neue', Helvetica, Arial-Unicode, Arial, Sans-serif">Created by Brickclay</text><text x="0" y="73" fill="#000000" font-size="5px" font-weight="bold" font-family="'Helvetica Neue', Helvetica, Arial-Unicode, Arial, Sans-serif">from the Noun Project</text></svg>