<svg xmlns="http://www.w3.org/2000/svg" version="1.1" viewBox="-5.0 -10.0 110.0 135.0">
 <path d="m96.219 43.566c-0.85547-0.73438-1.9922-1.0469-3.125-0.87109l-41.359 7.1484c-0.38672-0.66016-2.2305-3.9648-2.7422-7.625-0.375-2.7031 2.1562-5.9805 3.25-7.2539 1.1523-1.2305 0.67187-3.4414-0.89453-4.0586-5.1055-2.2266-9.9531-2.2422-14.402-0.050781-1.5 0.68359-1.9688 2.8242-0.83984 4.0391 1.1211 1.293 3.6914 4.5977 3.3203 7.3281-0.085937 0.63672-0.22656 1.3086-0.41016 1.9961l-24.484-23.805c-1.1016-1.0781-2.7461-1.3008-4.0898-0.56641l-6.1992 3.3789c-2.0898 1.082-2.4375 4.1797-0.59766 5.6836l28.945 24.582c-1.2109 2.0859-0.875 4.6562 0.71094 6.5 0 0-12.887 15.645-12.887 15.645-0.60156 0.73438-0.75391 1.7344-0.39062 2.6094 0.36328 0.875 1.1719 1.4805 2.1133 1.5781l7.3086 0.74609c0.79297 0.078126 1.5977-0.21875 2.1484-0.81641 0 0 14.488-15.703 14.488-15.703 7.5781-0.66406 13.293-5.9922 9.0352-11.617 0 0 38.492-6.6523 38.492-6.6523 0.30078-0.046875 0.49609 0.082031 0.58594 0.16406 0.09375 0.078126 0.25 0.25391 0.25 0.54297v4.4844c0 0.35156-0.25781 0.65234-0.625 0.70312l-34.469 5.2188c-0.85156 0.12891-1.4414 0.92578-1.3125 1.7773 0.125 0.85938 0.94141 1.4453 1.7773 1.3125l34.449-5.2188c1.8828-0.25781 3.3008-1.8906 3.3008-3.7969v-4.4844c0-1.125-0.48828-2.1914-1.3438-2.918zm-46.812-10.082c-1.1992 1.4844-2.6602 3.6797-3.2734 6.0625h-3.8555c-0.625-2.4219-2.1328-4.6602-3.3594-6.1602 3.2617-1.418 6.7031-1.3867 10.484 0.097656zm-6.8906 9.1875h3.3828c0.31641 2.2383 1.0391 4.3203 1.7227 5.918-1.3711-0.24609-2.9297-0.35938-4.3945-0.27344l-1.7188-1.6719c0.46875-1.3789 0.83203-2.7227 1.0078-3.9727zm-36.957-16.434c0.007812-0.082031 0.046875-0.19531 0.17969-0.26953l6.1992-3.3789c0.13281-0.074219 0.29688-0.050782 0.41016 0.058594 0.003906 0 26.293 25.566 26.297 25.57l0.69922 0.67969c-1.8477 0.49609-3.457 1.2656-4.7031 2.2383l-28.961-24.598c-0.11328-0.097656-0.125-0.21875-0.11719-0.30078zm23.922 51.191-5.9961-0.61328 12.207-14.82c1.6719 1.0117 3.7891 1.7227 6.1758 2.0039l-12.387 13.426zm14.727-16.41c-5.4414 0-9.2305-2.5312-9.2305-4.8047 0-2.2734 3.793-4.8047 9.2305-4.8047 5.4414 0 9.2305 2.5312 9.2305 4.8047 0 2.2734-3.7891 4.8047-9.2305 4.8047z"/>
<text x="0.0" y="117.5" font-size="5.0" font-weight="bold" font-family="Arbeit Regular, Helvetica, Arial-Unicode, Arial, Sans-serif" fill="#000000">Ceiling Fan</text></svg>