<svg xmlns="http://www.w3.org/2000/svg" xmlns:xlink="http://www.w3.org/1999/xlink" version="1.1" x="0px" y="0px" viewBox="-5.0 -10.0 110.0 135.0" style="enable-background:new 0 0 100 100;" xml:space="preserve"><path d="M68.11,37.38c-5.66-0.2-11.04,1.9-14.92,5.81c-0.09-0.04-0.17-0.09-0.26-0.13c0.81-1.25,1.8-2.21,2.76-3.15  c1.98-1.91,4.03-3.88,4.01-7.99c0-3.14-1.02-6.04-2.88-8.17c-1.96-2.24-4.72-3.48-7.79-3.48c-6.29,0-11.41,5.1-11.64,11.6  c-0.21,5.66,1.9,11.04,5.81,14.92c-0.04,0.09-0.09,0.17-0.13,0.26c-1.25-0.81-2.21-1.8-3.15-2.76c-1.9-1.97-3.86-4.01-7.93-4.01  c-0.02,0-0.04,0-0.06,0c-3.14,0-6.04,1.02-8.17,2.88c-2.24,1.96-3.48,4.72-3.48,7.79c0,6.29,5.1,11.41,11.6,11.65  c0.26,0.01,0.51,0.01,0.76,0.01c5.37,0,10.43-2.11,14.14-5.83c0.1,0.05,0.19,0.1,0.28,0.14c-0.81,1.25-1.8,2.21-2.76,3.15  c-1.98,1.91-4.03,3.88-4.01,7.99c0,3.14,1.02,6.04,2.88,8.17c1.96,2.24,4.72,3.48,7.79,3.48c6.29,0,11.41-5.1,11.65-11.6  c0.21-5.66-1.9-11.04-5.81-14.92c0.04-0.09,0.09-0.17,0.13-0.26c1.25,0.81,2.21,1.8,3.15,2.76c1.9,1.97,3.86,4.01,7.93,4.01  c0.02,0,0.04,0,0.06,0c3.14,0,6.04-1.02,8.17-2.88c2.24-1.96,3.48-4.72,3.48-7.79C79.71,42.74,74.62,37.62,68.11,37.38z M50,55.28  c-2.91,0-5.28-2.37-5.28-5.28c0-2.91,2.37-5.28,5.28-5.28s5.28,2.37,5.28,5.28C55.28,52.91,52.91,55.28,50,55.28z M39.62,31.97  c0.19-5.3,4.32-9.44,9.4-9.44c4.88,0,8.43,3.95,8.43,9.41c0.02,3.15-1.46,4.57-3.32,6.36c-1.17,1.13-2.48,2.39-3.49,4.2  c-0.21-0.02-0.42-0.03-0.64-0.03c-2.18,0-4.14,0.94-5.52,2.42C41.22,41.48,39.44,36.85,39.62,31.97z M31.97,60.38  c-5.3-0.19-9.44-4.32-9.44-9.4c0-4.88,3.95-8.43,9.41-8.43c0.02,0,0.03,0,0.05,0c3.12,0,4.53,1.47,6.31,3.32  c1.13,1.17,2.39,2.48,4.2,3.49c-0.02,0.21-0.03,0.42-0.03,0.64c0,2.18,0.94,4.14,2.42,5.52C41.48,58.78,36.85,60.56,31.97,60.38z   M60.38,68.03c-0.19,5.3-4.32,9.44-9.4,9.44c-4.88,0-8.43-3.95-8.43-9.41c-0.02-3.15,1.46-4.57,3.32-6.36  c1.17-1.13,2.48-2.39,3.49-4.2c0.21,0.02,0.42,0.03,0.64,0.03c2.18,0,4.14-0.94,5.52-2.42C58.78,58.52,60.56,63.15,60.38,68.03z   M68.06,57.45c-0.02,0-0.03,0-0.05,0c-3.12,0-4.53-1.47-6.32-3.32c-1.13-1.17-2.39-2.48-4.2-3.49c0.02-0.21,0.03-0.42,0.03-0.64  c0-2.18-0.94-4.14-2.42-5.52c3.41-3.27,8.05-5.04,12.92-4.86c5.3,0.19,9.44,4.32,9.44,9.4C77.47,53.91,73.52,57.45,68.06,57.45z   M91.17,4H8.83C6.17,4,4,6.17,4,8.83v82.33C4,93.83,6.17,96,8.83,96h82.33c2.66,0,4.83-2.17,4.83-4.83V8.83C96,6.17,93.83,4,91.17,4  z M93.76,91.17c0,1.43-1.16,2.59-2.59,2.59H8.83c-1.43,0-2.59-1.16-2.59-2.59V8.83c0-1.43,1.16-2.59,2.59-2.59h82.33  c1.43,0,2.59,1.16,2.59,2.59V91.17z M50,12.37c-20.75,0-37.63,16.88-37.63,37.63c0,20.75,16.88,37.63,37.63,37.63  S87.63,70.75,87.63,50C87.63,29.25,70.75,12.37,50,12.37z M50,85.39c-19.51,0-35.39-15.88-35.39-35.39S30.49,14.61,50,14.61  c19.51,0,35.39,15.88,35.39,35.39S69.51,85.39,50,85.39z M50,46.39c-1.99,0-3.61,1.62-3.61,3.61c0,1.99,1.62,3.61,3.61,3.61  s3.61-1.62,3.61-3.61C53.61,48.01,51.99,46.39,50,46.39z M50,51.37c-0.75,0-1.37-0.61-1.37-1.37c0-0.75,0.61-1.37,1.37-1.37  s1.37,0.61,1.37,1.37C51.37,50.75,50.75,51.37,50,51.37z M14.93,18.01c2.05,0,3.71-1.67,3.71-3.71c0-2.05-1.67-3.71-3.71-3.71  c-2.05,0-3.71,1.67-3.71,3.71C11.22,16.34,12.88,18.01,14.93,18.01z M14.93,12.83c0.81,0,1.47,0.66,1.47,1.47s-0.66,1.47-1.47,1.47  c-0.81,0-1.47-0.66-1.47-1.47S14.12,12.83,14.93,12.83z M85.07,10.58c-2.05,0-3.71,1.67-3.71,3.71c0,2.05,1.67,3.71,3.71,3.71  c2.05,0,3.71-1.67,3.71-3.71C88.78,12.25,87.12,10.58,85.07,10.58z M85.07,15.76c-0.81,0-1.47-0.66-1.47-1.47s0.66-1.47,1.47-1.47  c0.81,0,1.47,0.66,1.47,1.47S85.88,15.76,85.07,15.76z M14.93,81.99c-2.05,0-3.71,1.67-3.71,3.71s1.67,3.71,3.71,3.71  c2.05,0,3.71-1.67,3.71-3.71S16.98,81.99,14.93,81.99z M14.93,87.17c-0.81,0-1.47-0.66-1.47-1.47c0-0.81,0.66-1.47,1.47-1.47  c0.81,0,1.47,0.66,1.47,1.47C16.4,86.52,15.74,87.17,14.93,87.17z M85.07,81.99c-2.05,0-3.71,1.67-3.71,3.71s1.67,3.71,3.71,3.71  c2.05,0,3.71-1.67,3.71-3.71S87.12,81.99,85.07,81.99z M85.07,87.17c-0.81,0-1.47-0.66-1.47-1.47c0-0.81,0.66-1.47,1.47-1.47  c0.81,0,1.47,0.66,1.47,1.47C86.54,86.52,85.88,87.17,85.07,87.17z"/><text x="35.0" y="105.5" font-size="10.0" font-weight="bold" font-family="Arbeit Regular, Helvetica, Arial-Unicode, Arial, Sans-serif" fill="#000000">120W</text></svg>