<svg xmlns="http://www.w3.org/2000/svg" xmlns:xlink="http://www.w3.org/1999/xlink" version="1.1" x="0px" y="0px" viewBox="0 0 512 640" style="enable-background:new 0 0 512 512;" xml:space="preserve"><g><g><path d="M322.5,352.4H189.5c-3.5,0-6.6-2.4-7.5-5.8l-43-157.2c-0.7-2.6,0.8-5.3,3.4-6c2.6-0.7,5.3,0.8,6,3.4l42.6,155.8h129.8    l42.6-155.8c0.7-2.6,3.4-4.1,6-3.4c2.6,0.7,4.1,3.4,3.4,6l-43,157.2C329.1,349.9,326,352.4,322.5,352.4z M320.4,344.2    C320.4,344.2,320.4,344.2,320.4,344.2C320.4,344.2,320.4,344.2,320.4,344.2z M191.6,344.2C191.6,344.2,191.6,344.2,191.6,344.2    C191.6,344.2,191.6,344.2,191.6,344.2z"/></g><g><path d="M235.4,352.3c-2.4,0-4.6-1.8-4.8-4.3l-18.3-159.3c-0.3-2.7,1.6-5.1,4.3-5.4c2.7-0.3,5.1,1.6,5.4,4.3l18.3,159.3    c0.3,2.7-1.6,5.1-4.3,5.4C235.7,352.3,235.6,352.3,235.4,352.3z"/></g><g><path d="M276.6,352.3c-0.2,0-0.4,0-0.6,0c-2.7-0.3-4.6-2.7-4.3-5.4L290,187.5c0.3-2.7,2.7-4.6,5.4-4.3c2.7,0.3,4.6,2.7,4.3,5.4    L281.5,348C281.2,350.4,279.1,352.3,276.6,352.3z"/></g><g><g><path d="M269.8,471h-27.5c-4.3,0-7.7-3.5-7.7-7.7v-93c0-2.7,2.2-4.9,4.9-4.9c2.7,0,4.9,2.2,4.9,4.9v90.9h23.4v-90.9     c0-2.7,2.2-4.9,4.9-4.9s4.9,2.2,4.9,4.9v93C277.5,467.5,274,471,269.8,471z"/></g></g><g><g><path d="M256,78.1c-10.2,0-18.6-8.3-18.6-18.6S245.8,41,256,41s18.6,8.3,18.6,18.6S266.2,78.1,256,78.1z M256,50.7     c-4.9,0-8.8,3.9-8.8,8.8s3.9,8.8,8.8,8.8c4.9,0,8.8-3.9,8.8-8.8S260.9,50.7,256,50.7z"/></g></g><g><path d="M291.2,375.3h-70c-4.4,0-8-3.4-8.2-7.8c0-0.1,0-0.1,0-0.2l-0.2-19.6c0-2.7,2.1-4.9,4.8-4.9c2.7,0,4.9,2.1,4.9,4.8l0.2,18    h66.9l-0.2-18c0-2.7,2.1-4.9,4.8-4.9c0,0,0,0,0,0c2.7,0,4.9,2.2,4.9,4.8l0.2,19.6C299.4,371.6,295.7,375.3,291.2,375.3z"/></g><g><path d="M384.4,193H127.6c-4.4,0-7.9-3.6-7.9-7.9v-19.3c0-2,1.2-3.8,3.1-4.6c80.4-30.9,128.9-90.4,129.4-91    c0.9-1.2,2.3-1.8,3.8-1.8c0,0,0,0,0,0c1.5,0,2.9,0.7,3.8,1.8c0.6,0.7,49.1,60.2,129.4,91c1.9,0.7,3.1,2.5,3.1,4.6V185    C392.4,189.4,388.8,193,384.4,193z M129.4,183.2h253.2v-14.1C313.5,141.8,268.9,95.5,256,80.8c-12.9,14.6-57.5,60.9-126.6,88.3    V183.2z"/></g><g><path d="M387.5,170.6H124.5c-2.7,0-4.9-2.2-4.9-4.9s2.2-4.9,4.9-4.9h262.9c2.7,0,4.9,2.2,4.9,4.9S390.2,170.6,387.5,170.6z"/></g></g><text x="160" y="537" fill="#000000" font-size="80px" font-weight="bold" font-family="'Helvetica Neue', Helvetica, Arial-Unicode, Arial, Sans-serif">45 W</text></svg>