<svg xmlns="http://www.w3.org/2000/svg" xmlns:xlink="http://www.w3.org/1999/xlink" version="1.1" x="0px" y="0px" viewBox="0 0 50 62.5" enable-background="new 0 0 50 50" xml:space="preserve"><g><path d="M11,11h-0.6c-1.2,0-2.2,1-2.2,2.2s1,2.2,2.2,2.2h0.5l4.9,29.8c0.3,1.3,1.4,2.2,2.7,2.2h1.8V48c0,1,0.8,1.8,1.8,1.8h5.8   c1,0,1.8-0.8,1.8-1.8v-0.8h1.8c1.3,0,2.4-0.9,2.7-2.2l4.9-29.8h0.5c1.2,0,2.2-1,2.2-2.2s-1-2.2-2.2-2.2H39   c-1.6-2.7-8.2-4.7-11.7-5.5c0.5-0.6,0.8-1.3,0.8-2.1c0-1.7-1.4-3.1-3.1-3.1c-1.7,0-3.1,1.4-3.1,3.1c0,0.8,0.3,1.5,0.8,2.1   C19.2,6.3,12.6,8.2,11,11z M27.9,48.3h-5.8c-0.1,0-0.3-0.1-0.3-0.3v-0.8h6.3C28.1,47.6,28.2,48.3,27.9,48.3z M32.7,44.8   c-0.1,0.6-0.6,1-1.2,1c-6.5,0-3.1,0-12.9,0c-0.6,0-1.1-0.4-1.2-0.9l-4.9-29.5h25.1L32.7,44.8z M40.3,13.1c0,0.4-0.3,0.7-0.7,0.7   c-3.4,0-25.5,0-28.9,0h-0.3c-0.4,0-0.7-0.3-0.7-0.7c0-0.4,0.3-0.7,0.7-0.7c11,0,18.2,0,29.2,0C40,12.5,40.3,12.8,40.3,13.1z    M25,1.8c0.9,0,1.6,0.7,1.6,1.6S25.9,5,25,5c-0.9,0-1.6-0.7-1.6-1.6S24.1,1.8,25,1.8z M25,6.5C28.9,7.3,34.9,9,37.1,11H12.9   C15.1,9,21.1,7.3,25,6.5z"/><path d="M19.5,42.6c0.1,0.4,0.4,0.6,0.7,0.6h9.5c0.4,0,0.7-0.3,0.7-0.6l3.9-24c0.1-0.5-0.3-0.9-0.7-0.9H16.3   c-0.5,0-0.8,0.4-0.7,0.9L19.5,42.6z M29.1,41.8h-3.4V19.3h7L29.1,41.8z M24.3,19.3v22.5h-3.4l-3.6-22.5H24.3z"/></g><text x="13" y="58" fill="#000000" font-size="10px" font-weight="bold" font-family="'Helvetica Neue', Helvetica, Arial-Unicode, Arial, Sans-serif">20 W</text></svg>