<svg xmlns="http://www.w3.org/2000/svg" version="1.1" viewBox="-5.0 -10.0 110.0 135.0">
 <path d="m92.188 20.312h-84.375c-2.5859 0-4.6875 2.1016-4.6875 4.6875v28.125c0 2.5859 2.1016 4.6875 4.6875 4.6875h84.375c2.5859 0 4.6875-2.1016 4.6875-4.6875v-28.125c0-2.5859-2.1016-4.6875-4.6875-4.6875zm-10.938 34.375h-62.5v-9.375h62.5zm12.5-1.5625c0 0.85938-0.70312 1.5625-1.5625 1.5625h-7.8125v-10.938c0-0.86328-0.69922-1.5625-1.5625-1.5625h-65.625c-0.86328 0-1.5625 0.69922-1.5625 1.5625v10.938h-7.8125c-0.85938 0-1.5625-0.70312-1.5625-1.5625v-28.125c0-0.85938 0.70312-1.5625 1.5625-1.5625h84.375c0.85938 0 1.5625 0.70312 1.5625 1.5625z"/>
 <path d="m21.875 51.562h56.25c0.86328 0 1.5625-0.69922 1.5625-1.5625s-0.69922-1.5625-1.5625-1.5625h-56.25c-0.86328 0-1.5625 0.69922-1.5625 1.5625s0.69922 1.5625 1.5625 1.5625z"/>
 <path d="m81.25 34.375c-0.86328 0-1.5625 0.69922-1.5625 1.5625v1.5625c0 0.86328 0.69922 1.5625 1.5625 1.5625s1.5625-0.69922 1.5625-1.5625v-1.5625c0-0.86328-0.69922-1.5625-1.5625-1.5625z"/>
 <path d="m75 34.375c-0.86328 0-1.5625 0.69922-1.5625 1.5625v1.5625c0 0.86328 0.69922 1.5625 1.5625 1.5625s1.5625-0.69922 1.5625-1.5625v-1.5625c0-0.86328-0.69922-1.5625-1.5625-1.5625z"/>
 <path d="m17.188 34.375c-0.86328 0-1.5625 0.69922-1.5625 1.5625v1.5625c0 0.86328 0.69922 1.5625 1.5625 1.5625s1.5625-0.69922 1.5625-1.5625v-1.5625c0-0.86328-0.69922-1.5625-1.5625-1.5625z"/>
 <path d="m51.25 63.438c0.51562-0.6875 0.375-1.6719-0.3125-2.1875-0.69141-0.51562-1.6719-0.37891-2.1875 0.3125-2.9219 3.8984-1.3828 6.9766-0.14844 9.4492 1.1484 2.3047 1.9102 3.8242 0.14844 6.1758-0.51562 0.6875-0.375 1.6719 0.3125 2.1875 0.28125 0.21094 0.60938 0.3125 0.9375 0.3125 0.47656 0 0.94531-0.21484 1.25-0.625 2.9219-3.8984 1.3828-6.9766 0.14844-9.4492-1.1484-2.3047-1.9102-3.8242-0.14844-6.1758z"/>
 <path d="m41.875 63.438c0.51562-0.6875 0.375-1.6719-0.3125-2.1875s-1.6719-0.37891-2.1875 0.3125c-2.9219 3.8984-1.3828 6.9766-0.14844 9.4492 1.1484 2.3047 1.9102 3.8242 0.14844 6.1758-0.51562 0.6875-0.375 1.6719 0.3125 2.1875 0.28125 0.21094 0.60938 0.3125 0.9375 0.3125 0.47656 0 0.94531-0.21484 1.25-0.625 2.9219-3.8984 1.3828-6.9766 0.14844-9.4492-1.1484-2.3047-1.9102-3.8242-0.14844-6.1758z"/>
 <path d="m32.5 63.438c0.51562-0.6875 0.375-1.6719-0.3125-2.1875s-1.6719-0.37891-2.1875 0.3125c-2.9219 3.8984-1.3828 6.9766-0.14844 9.4492 1.1484 2.3047 1.9102 3.8242 0.14844 6.1758-0.51562 0.6875-0.375 1.6719 0.3125 2.1875 0.28125 0.21094 0.60938 0.3125 0.9375 0.3125 0.47656 0 0.94531-0.21484 1.25-0.625 2.9219-3.8984 1.3828-6.9766 0.14844-9.4492-1.1484-2.3047-1.9102-3.8242-0.14844-6.1758z"/>
 <path d="m70 63.438c0.51562-0.6875 0.375-1.6719-0.3125-2.1875-0.69141-0.51562-1.6719-0.37891-2.1875 0.3125-2.9219 3.8984-1.3828 6.9766-0.14844 9.4492 1.1484 2.3047 1.9102 3.8242 0.14844 6.1758-0.51562 0.6875-0.375 1.6719 0.3125 2.1875 0.28125 0.21094 0.60938 0.3125 0.9375 0.3125 0.47656 0 0.94531-0.21484 1.25-0.625 2.9219-3.8984 1.3828-6.9766 0.14844-9.4492-1.1484-2.3047-1.9102-3.8242-0.14844-6.1758z"/>
 <path d="m60.625 63.438c0.51562-0.6875 0.375-1.6719-0.3125-2.1875-0.69141-0.51562-1.6719-0.37891-2.1875 0.3125-2.9219 3.8984-1.3828 6.9766-0.14844 9.4492 1.1484 2.3047 1.9102 3.8242 0.14844 6.1758-0.51562 0.6875-0.375 1.6719 0.3125 2.1875 0.28125 0.21094 0.60938 0.3125 0.9375 0.3125 0.47656 0 0.94531-0.21484 1.25-0.625 2.9219-3.8984 1.3828-6.9766 0.14844-9.4492-1.1484-2.3047-1.9102-3.8242-0.14844-6.1758z"/>
<text x="0.0" y="117.5" font-size="5.0" font-weight="bold" font-family="Arbeit Regular, Helvetica, Arial-Unicode, Arial, Sans-serif" fill="#000000">Created by Izwar Muis</text><text x="0.0" y="122.5" font-size="5.0" font-weight="bold" font-family="Arbeit Regular, Helvetica, Arial-Unicode, Arial, Sans-serif" fill="#000000">from Noun Project</text></svg>