<svg xmlns="http://www.w3.org/2000/svg" xmlns:xlink="http://www.w3.org/1999/xlink" version="1.1" x="0px" y="0px" viewBox="0 0 100 125" style="enable-background:new 0 0 100 100;" xml:space="preserve"><path d="M64.29,10c-0.03,0-0.05,0-0.08,0h-7.99c-12.63,0-22.91,10.28-22.91,22.91V59.2h-1.43c-0.36,0-0.65,0.29-0.65,0.65v25.07  h-2.85c-0.36,0-0.65,0.29-0.65,0.65v3.79c0,0.36,0.29,0.65,0.65,0.65h13.73c0.36,0,0.65-0.29,0.65-0.65v-3.79  c0-0.36-0.29-0.65-0.65-0.65h-2.85V59.85c0-0.36-0.29-0.65-0.65-0.65H37.2V32.91c0-10.49,8.53-19.02,19.02-19.02h0.12  c0,0.05-0.02,0.11-0.02,0.16c0,2.31,3.42,4.05,7.97,4.05c4.54,0,7.96-1.74,7.96-4.05C72.26,11.74,68.83,10,64.29,10z M41.47,86.21  v2.49H29.04v-2.49h2.85h6.73H41.47z M37.97,60.5v24.42h-5.44V60.5H37.97z M56.83,12.59h-0.61c-11.2,0-20.32,9.11-20.32,20.32V59.2  h-1.29V32.91c0-11.92,9.7-21.61,21.61-21.61h2.14C57.7,11.67,57.18,12.1,56.83,12.59z M57.62,14.05c0-1.3,2.72-2.74,6.63-2.75h0.04  v0c0,0,0,0,0,0c2.57,0,4.61,0.62,5.73,1.42c-1.2-0.26-2.5-0.41-3.86-0.41c-3.53,0-6.66,0.92-8.29,2.39  C57.72,14.48,57.62,14.26,57.62,14.05z M64.29,16.8c-2.38,0-4.3-0.53-5.47-1.24c1.4-1.19,4.22-1.97,7.33-1.97  c1.74,0,3.36,0.24,4.75,0.69C70.6,15.52,67.99,16.8,64.29,16.8z"/><text x="0" y="115" fill="#000000" font-size="5px" font-weight="bold" font-family="'Helvetica Neue', Helvetica, Arial-Unicode, Arial, Sans-serif">Created by ainul muttaqin</text><text x="0" y="120" fill="#000000" font-size="5px" font-weight="bold" font-family="'Helvetica Neue', Helvetica, Arial-Unicode, Arial, Sans-serif">from the Noun Project</text></svg>