<svg xmlns="http://www.w3.org/2000/svg" xmlns:xlink="http://www.w3.org/1999/xlink" version="1.1" x="0px" y="0px" viewBox="0 0 100 125" style="enable-background:new 0 0 100 100;" xml:space="preserve"><path d="M72.39,11.31c-0.1,0.05-0.19,0.1-0.29,0.15L50,20.22l-21.98-8.71c-0.13-0.07-0.26-0.13-0.4-0.2  c-4.1-1.88-7.91-1.72-8.86,0.36c-0.49,1.06-0.12,2.39,1.03,3.74c1.04,1.22,2.63,2.36,4.48,3.21c1.83,0.84,3.71,1.3,5.31,1.3  c0.02,0,0.03,0,0.05,0c1.78-0.01,3.02-0.6,3.51-1.66v0c0.16-0.35,0.22-0.73,0.2-1.12l14.75,8.51v39.09h-1.41  c-0.36,0-0.64,0.29-0.64,0.64v19.14c-3.53,0.8-5.95,2.64-5.95,4.84c0,0.36,0.29,0.64,0.64,0.64h18.58c0.36,0,0.64-0.29,0.64-0.64  c0-2.2-2.42-4.04-5.95-4.84V65.38c0-0.36-0.29-0.64-0.64-0.64h-1.41V25.65l14.75-8.52c-0.02,0.4,0.04,0.78,0.2,1.13  c0.49,1.06,1.73,1.65,3.51,1.66c0.02,0,0.03,0,0.05,0c1.59,0,3.48-0.46,5.31-1.3c4.1-1.88,6.47-4.86,5.51-6.95  C80.3,9.59,76.49,9.43,72.39,11.31z M19.92,12.21c0.26-0.58,1.14-0.92,2.39-0.92c1.29,0,2.97,0.36,4.77,1.19  c2.32,1.06,3.9,2.47,4.58,3.65c-0.97-0.73-2.08-1.4-3.32-1.97c-3.19-1.46-6.39-1.92-8.47-1.27C19.83,12.64,19.83,12.4,19.92,12.21z   M29.61,18.63c-1.41,0.07-3.13-0.41-4.81-1.18c-1.68-0.77-3.11-1.79-4.04-2.87c-0.15-0.17-0.26-0.34-0.38-0.51  c1.76-0.49,4.61-0.03,7.42,1.26c1.58,0.72,2.94,1.61,4,2.59C31.45,18.36,30.69,18.63,29.61,18.63z M53.23,85.67  c2.86,0.54,4.79,1.77,5.29,3.05H41.48c0.5-1.28,2.43-2.5,5.29-3.05c0.03-0.01,0.06-0.01,0.09-0.02c0.95-0.18,2.01-0.28,3.15-0.28  c1.14,0,2.19,0.1,3.15,0.28C53.17,85.66,53.2,85.66,53.23,85.67z M52.7,66.02v18.26c-0.86-0.12-1.76-0.19-2.7-0.19  c-0.94,0-1.84,0.07-2.7,0.19V66.02h1.38c0.01,0,0.02,0.01,0.03,0.01c0,0,0,0,0,0c0,0,0,0,0,0c0.01,0,0.02-0.01,0.03-0.01h2.51  c0.01,0,0.02,0.01,0.03,0.01c0,0,0,0,0,0c0,0,0,0,0,0c0.01,0,0.02-0.01,0.03-0.01H52.7z M67.91,14.52  c-0.21,0.25-0.39,0.49-0.54,0.74l-16.4,9.47c-0.02,0.01-0.03,0.03-0.05,0.04c-0.04,0.03-0.09,0.06-0.12,0.11  c-0.02,0.02-0.03,0.05-0.05,0.07c-0.03,0.05-0.05,0.09-0.07,0.14c-0.01,0.03-0.01,0.06-0.02,0.09c-0.01,0.04-0.02,0.07-0.02,0.11  v39.46h-1.28V25.28c0-0.03-0.01-0.05-0.02-0.08c-0.01-0.05-0.01-0.09-0.03-0.13c-0.01-0.04-0.03-0.07-0.05-0.11  c-0.02-0.04-0.04-0.07-0.07-0.1c-0.03-0.03-0.06-0.06-0.1-0.09c-0.02-0.02-0.04-0.04-0.06-0.05l-16.38-9.46  c-0.16-0.25-0.35-0.51-0.57-0.76l17.67,7c0.08,0.03,0.16,0.05,0.24,0.05s0.16-0.01,0.24-0.05l17.7-7.01  C67.93,14.5,67.92,14.51,67.91,14.52z M75.2,17.45c-1.67,0.76-3.36,1.18-4.77,1.18c-0.01,0-0.03,0-0.04,0  c-1.08-0.01-1.84-0.27-2.2-0.72c1.06-0.97,2.42-1.86,4-2.58c2.81-1.29,5.67-1.75,7.43-1.26C78.87,15.19,77.35,16.47,75.2,17.45z   M80.13,12.89c-2.08-0.65-5.29-0.19-8.48,1.27c-1.24,0.57-2.35,1.24-3.32,1.97c0.15-0.25,0.32-0.51,0.55-0.78  c0.92-1.08,2.36-2.1,4.04-2.87c1.8-0.83,3.48-1.19,4.77-1.19c1.24,0,2.12,0.34,2.39,0.91C80.17,12.4,80.17,12.64,80.13,12.89z"/><text x="0" y="115" fill="#000000" font-size="5px" font-weight="bold" font-family="'Helvetica Neue', Helvetica, Arial-Unicode, Arial, Sans-serif">Created by ainul muttaqin</text><text x="0" y="120" fill="#000000" font-size="5px" font-weight="bold" font-family="'Helvetica Neue', Helvetica, Arial-Unicode, Arial, Sans-serif">from the Noun Project</text></svg>