<svg width="200" height="120" xmlns="http://www.w3.org/2000/svg" viewBox="0 0 200 120"> 
  <rect id="rectangle" x="2" y="2" width="196" height="116" fill="none" stroke="black" stroke-width="2" /> 
   
  <!-- Input connection line --> 
  <line id="line1" x1="100" y1="1" x2="100" y2="20" stroke="black" stroke-width="2" /> 
   
  <!-- Switch symbols for each outgoing connection --> 
  
  <!-- Out 1: x=4 -->
  <g transform="translate(4,115)"> 
    <rect x="-4" y="-4" width="8" height="8" fill="white" stroke="black" stroke-width="1" /> 
    <line x1="-2" y1="0" x2="2" y2="0" stroke="black" stroke-width="1.5" /> 
  </g> 
   
  <!-- Out 2: x=28 -->
  <g transform="translate(28,115)"> 
    <rect x="-4" y="-4" width="8" height="8" fill="white" stroke="black" stroke-width="1" /> 
    <line x1="-2" y1="0" x2="2" y2="0" stroke="black" stroke-width="1.5" /> 
  </g> 
   
  <!-- Out 3: x=52 -->
  <g transform="translate(52,115)"> 
    <rect x="-4" y="-4" width="8" height="8" fill="white" stroke="black" stroke-width="1" /> 
    <line x1="-2" y1="0" x2="2" y2="0" stroke="black" stroke-width="1.5" /> 
  </g> 
   
  <!-- Out 4: x=76 -->
  <g transform="translate(76,115)"> 
    <rect x="-4" y="-4" width="8" height="8" fill="white" stroke="black" stroke-width="1" /> 
    <line x1="-2" y1="0" x2="2" y2="0" stroke="black" stroke-width="1.5" /> 
  </g> 
   
  <!-- Out 5: x=100 -->
  <g transform="translate(100,115)"> 
    <rect x="-4" y="-4" width="8" height="8" fill="white" stroke="black" stroke-width="1" /> 
    <line x1="-2" y1="0" x2="2" y2="0" stroke="black" stroke-width="1.5" /> 
  </g> 
   
  <!-- Out 6: x=124 -->
  <g transform="translate(124,115)"> 
    <rect x="-4" y="-4" width="8" height="8" fill="white" stroke="black" stroke-width="1" /> 
    <line x1="-2" y1="0" x2="2" y2="0" stroke="black" stroke-width="1.5" /> 
  </g> 
   
  <!-- Out 7: x=148 -->
  <g transform="translate(148,115)"> 
    <rect x="-4" y="-4" width="8" height="8" fill="white" stroke="black" stroke-width="1" /> 
    <line x1="-2" y1="0" x2="2" y2="0" stroke="black" stroke-width="1.5" /> 
  </g> 
   
  <!-- Out 8: x=172 -->
  <g transform="translate(172,115)"> 
    <rect x="-4" y="-4" width="8" height="8" fill="white" stroke="black" stroke-width="1" /> 
    <line x1="-2" y1="0" x2="2" y2="0" stroke="black" stroke-width="1.5" /> 
  </g> 
   
  <!-- Out 9: x=196 -->
  <g transform="translate(196,115)"> 
    <rect x="-4" y="-4" width="8" height="8" fill="white" stroke="black" stroke-width="1" /> 
    <line x1="-2" y1="0" x2="2" y2="0" stroke="black" stroke-width="1.5" /> 
  </g> 
   
  <!-- Labels with improved styling --> 
  <text id="text1" x="100" y="30" font-family="Verdana" font-size="12" fill="Black" text-anchor="middle"> 
    Switch Board 
  </text> 
   
  <text id="Rating" x="100" y="45" font-family="Verdana" font-size="12" fill="Black" text-anchor="middle"> 
    Point 
  </text> 
 
  <text id="avgRunText" x="100" y="65" font-family="Verdana" font-size="11" fill="Black" font-weight="bold" text-anchor="middle"> 
    avgRunText 
  </text> 
 
  <text id="orboard" x="100" y="80" font-family="Verdana" font-size="11" fill="Black" font-weight="bold" text-anchor="middle"> 
    OB = 0 
  </text> 
   
  <text id="Type" x="100" y="95" font-family="Verdana" font-size="12" fill="Black" font-weight="bold" text-anchor="middle"> 
    Switch Board 
  </text> 
 
</svg>